<?xml version="1.0" encoding="UTF-8" standalone="no"?>

<svg xmlns="http://www.w3.org/2000/svg" data-name="Layer 1" viewBox="0 0 70 70"><path d="M29.72 50.87l1-1.22v-3.93c-5.9 1.28-7.12-2.45-7.12-2.45a5.88 5.88 0 00-2.33-3.18c-2-1.29.12-1.22.12-1.22A4.33 4.33 0 0124.64 41c1.9 3.25 5 2.33 6.19 1.78a4.7 4.7 0 011.35-2.88c-4.72-.49-9.68-2.27-9.68-10.41a8.22 8.22 0 012.21-5.7 7.8 7.8 0 01.18-5.63s1.78-.55 5.82 2.2a19.33 19.33 0 015.29-.73 18.89 18.89 0 015.27.73c4.1-2.76 5.88-2.2 5.88-2.2a7.47 7.47 0 01.18 5.63 8.22 8.22 0 012.2 5.7c0 8.15-5 9.92-9.68 10.41a5.2 5.2 0 011.41 3.92c0 2.88-.06 5.14-.06 5.82a2.3 2.3 0 00.8 1.22c1.08 1.6-12.4 1.14-12.28.01zm-7-11.33a.29.29 0 00-.43.06.26.26 0 00.25.25.28.28 0 00.37-.06c.02-.07-.11-.19-.23-.25zm1 .8a.32.32 0 00-.43-.12.39.39 0 00.06.49c.12.12.37.18.43.06a.26.26 0 00-.12-.44zm.86 1.16a.41.41 0 00-.58-.19.67.67 0 000 .49.46.46 0 00.49.18c.21-.12.21-.3.03-.48zm1.1 1.16a.5.5 0 00-.68-.12.42.42 0 00.12.55.51.51 0 00.61.12.41.41 0 00-.11-.55zm1.29.8a.51.51 0 00-.55.12.45.45 0 00.37.43.44.44 0 00.55-.18c0-.19-.19-.31-.43-.38zm1.65.18a.48.48 0 00-.49.37.44.44 0 00.49.31.48.48 0 00.49-.37.44.44 0 00-.55-.31zm1.53-.12a.4.4 0 00-.37.31.36.36 0 00.49.25.41.41 0 00.43-.37.52.52 0 00-.61-.19z"></path></svg>