<?xml version="1.0" encoding="UTF-8" standalone="no"?>

<svg xmlns="http://www.w3.org/2000/svg" data-name="Layer 1" viewBox="0 0 70 70"><path d="M45.52 20.88a3.61 3.61 0 013.6 3.61v21a3.62 3.62 0 01-3.6 3.66h-21a3.63 3.63 0 01-3.66-3.66v-21a3.62 3.62 0 013.66-3.61h21zm.43 11.94h-2.53a5.87 5.87 0 01.38 2.42 8.77 8.77 0 01-17.54 0 5.87 5.87 0 01.43-2.42H24v11.89a1.15 1.15 0 001.18 1.13h19.64a1.14 1.14 0 001.13-1.13V32.82zM29.38 35A5.68 5.68 0 1035 29.43 5.57 5.57 0 0029.38 35zm12.05-11a1.38 1.38 0 00-1.24 1.29v3.12a1.38 1.38 0 001.24 1.24h3.23a1.34 1.34 0 001.29-1.24v-3.17a1.35 1.35 0 00-1.29-1.29h-3.23z"></path></svg>