
<svg id="Layer_1" data-name="Layer 1" xmlns="http://www.w3.org/2000/svg" xmlns:xlink="http://www.w3.org/1999/xlink" viewBox="0 0 250.593 64"><defs><style>.cls-1{fill:none;}.cls-2{clip-path:url(#clip-path);}.cls-3{fill:#000048;}.cls-4,.cls-5,.cls-6,.cls-7{fill-rule:evenodd;}.cls-4{fill:url(#linear-gradient);}.cls-5{fill:url(#linear-gradient-2);}.cls-6{fill:url(#linear-gradient-3);}.cls-7{fill:url(#linear-gradient-4);}.cls-8{fill:#2e308e;}</style><clipPath id="clip-path"><rect class="cls-1" x="-22" y="-22" width="289.85" height="108"/></clipPath><linearGradient id="linear-gradient" x1="-551.1" y1="-367.387" x2="-548.78" y2="-367.387" gradientTransform="translate(7367.7 3504.78) scale(13.37 9.45)" gradientUnits="userSpaceOnUse"><stop offset="0" stop-color="#3d54ce"/><stop offset="1" stop-color="#35cacf"/></linearGradient><linearGradient id="linear-gradient-2" x1="-552.41" y1="-367.387" x2="-550.08" y2="-367.387" gradientTransform="translate(8763.41 3504.78) scale(15.84 9.45)" gradientUnits="userSpaceOnUse"><stop offset="0" stop-color="#13457d"/><stop offset="1" stop-color="#279698"/></linearGradient><linearGradient id="linear-gradient-3" x1="-551.11" y1="-368.714" x2="-548.79" y2="-368.714" gradientTransform="translate(7373.75 3495.34) scale(13.38 9.45)" gradientUnits="userSpaceOnUse"><stop offset="0" stop-color="#090086"/><stop offset="1" stop-color="#2f96a9"/></linearGradient><linearGradient id="linear-gradient-4" x1="-552.41" y1="-368.714" x2="-550.08" y2="-368.714" gradientTransform="translate(8763.41 3495.34) scale(15.84 9.45)" gradientUnits="userSpaceOnUse"><stop offset="0" stop-color="#3b62ca"/><stop offset="1" stop-color="#93dfe3"/></linearGradient></defs><g class="cls-2"><path class="cls-3" d="M250.593,5.113a2.45,2.45,0,1,1-2.456-2.451A2.458,2.458,0,0,1,250.593,5.113Zm-.333,0a2.114,2.114,0,1,0-2.116,2.129A2.13,2.13,0,0,0,250.26,5.113Zm-1.674.21.741,1.137h-.571l-.667-1.082h-.381V6.46h-.47V3.751h1.021a.823.823,0,0,1,.837.81A.764.764,0,0,1,248.586,5.323Zm-.878-.353h.5a.394.394,0,0,0,.409-.389.388.388,0,0,0-.409-.381h-.5Zm-88.994,5.65H162.4V32.725h-3.685Zm-13.492-.494a10.1,10.1,0,0,0-6.448,2.316V10.618h-3.685v22.1h3.685V20.257a6.449,6.449,0,0,1,12.9,0V32.722h3.685V20.26A10.133,10.133,0,0,0,145.222,10.126Zm-17.5.489h3.685V31.888a11.8,11.8,0,0,1-11.536,11.536,11.166,11.166,0,0,1-10.986-8h3.959a7.422,7.422,0,0,0,7.027,4.311,8.124,8.124,0,0,0,7.851-7.851V30.11a11.535,11.535,0,1,1,0-16.9Zm0,11.047a7.851,7.851,0,1,0-7.851,7.85A7.851,7.851,0,0,0,127.725,21.662ZM70.7,13.811a7.854,7.854,0,0,1,7.115,4.528h3.932a11.535,11.535,0,1,0,0,6.646H77.819A7.852,7.852,0,1,1,70.7,13.811Zm35.86,7.851A11.536,11.536,0,1,1,95.028,10.126,11.535,11.535,0,0,1,106.564,21.662Zm-3.685,0a7.851,7.851,0,1,0-7.851,7.85A7.851,7.851,0,0,0,102.879,21.662ZM223.4,10.126a10.1,10.1,0,0,0-6.449,2.316V10.623h-3.685v22.1h3.685V20.257a6.449,6.449,0,0,1,12.9,0V32.722h3.685V20.26A10.132,10.132,0,0,0,223.4,10.126Zm-17.5.5h3.685v22.1H205.9V30.113a11.535,11.535,0,1,1-7.85-19.987v0a11.5,11.5,0,0,1,7.85,3.084Zm0,11.038a7.85,7.85,0,1,0-7.85,7.851A7.851,7.851,0,0,0,205.9,21.664ZM245.854,14.3V10.617h-5.526V4.589h-3.685V25.355a7.367,7.367,0,0,0,7.367,7.367h1.844V29.037H244.01l0,0a3.688,3.688,0,0,1-3.685-3.685V14.3ZM160.561,2.646a2.447,2.447,0,1,0,2.448,2.448A2.446,2.446,0,0,0,160.561,2.646Zm23.979,7.977H166.117v3.685h13.646L166.117,29.04v3.685H184.54V29.04H170.886l13.646-14.732Z"/><polygon class="cls-4" points="22.23 21.98 0 21.98 15.27 43.96 31.11 34.5 22.23 21.98"/><polygon class="cls-5" points="52.12 21.98 15.27 43.96 37.14 43.96 52.12 21.98"/><polygon class="cls-6" points="0 21.98 22.23 21.98 31.13 9.46 15.27 0 0 21.98"/><polygon class="cls-7" points="52.12 21.98 15.27 0 37.14 0 52.12 21.98"/><path class="cls-8" d="M234.69,54.71a4.89,4.89,0,1,0,8.862,4.137H246a7.189,7.189,0,1,1,0-4.136h-2.448a4.89,4.89,0,0,0-8.862,0ZM227.559,63.7h2.3V49.933h-2.274Zm1.178-18.731a1.526,1.526,0,1,0,1.526,1.526v-.006a1.52,1.52,0,0,0-1.52-1.52Zm-26.816,4.659a6.33,6.33,0,0,0-4.018,1.439V49.933h-2.292V63.7H197.9V55.938a4.018,4.018,0,1,1,8.036-.008V63.7h2.3V55.938a6.312,6.312,0,0,0-6.311-6.311ZM215.906,52.2V49.908h-3.4V46.17h-2.3V59.1a4.591,4.591,0,0,0,4.591,4.591h1.147V61.4H214.8a2.3,2.3,0,0,1-2.292-2.3V52.225Zm8.434-2.573a6.465,6.465,0,0,0-4.072,1.439V49.933h-2.323V63.7h2.323V55.938a3.988,3.988,0,0,1,1.193-2.841,4.1,4.1,0,0,1,4.151-.973V49.753A6.455,6.455,0,0,0,224.34,49.627Zm-91.362-.014a6.318,6.318,0,0,0-4.018,1.439V49.918h-2.292V63.685h2.292V55.923a4.018,4.018,0,0,1,8.036,0v7.762h2.3V55.923a6.31,6.31,0,0,0-6.31-6.31Zm38.133,2.276a4.889,4.889,0,0,1,4.435,2.822h2.448a7.188,7.188,0,1,0,0,4.136h-2.448a4.89,4.89,0,1,1-4.435-6.958Zm-7.721.3V49.893H160V46.155h-2.3V59.088a4.592,4.592,0,0,0,4.591,4.591h1.146V61.386h-1.146a2.3,2.3,0,0,1-2.292-2.3V52.21ZM143.574,57.5a4.857,4.857,0,0,0,.724,1.936,4.929,4.929,0,0,0,1.939,1.733,5.01,5.01,0,0,0,5.037-.325,4.916,4.916,0,0,0,1.492-1.609H155.3a7.189,7.189,0,0,1-2.921,3.638,7.354,7.354,0,0,1-9.423-1.366,7.121,7.121,0,0,1,0-9.4,7.354,7.354,0,0,1,9.423-1.366,7.212,7.212,0,0,1,2.76,3.179,7.131,7.131,0,0,1,.491,1.387h0a6.966,6.966,0,0,1,.192,1.62c0,.2-.01.386-.026.572Zm9.633-2.192h0a4.869,4.869,0,0,0-2.188-2.707,5.007,5.007,0,0,0-2.523-.684h-.024a5.007,5.007,0,0,0-2.523.684,4.885,4.885,0,0,0-2.188,2.707h9.446ZM181.459,57.5a4.857,4.857,0,0,0,.724,1.936,4.929,4.929,0,0,0,1.939,1.733,5.01,5.01,0,0,0,5.037-.325,4.895,4.895,0,0,0,1.492-1.609h2.536a7.189,7.189,0,0,1-2.921,3.638,7.354,7.354,0,0,1-9.423-1.366,7.121,7.121,0,0,1,0-9.4,7.354,7.354,0,0,1,9.423-1.366,7.212,7.212,0,0,1,2.76,3.179,7.131,7.131,0,0,1,.491,1.387h0a6.913,6.913,0,0,1,.192,1.62c0,.2-.01.386-.026.572Zm9.633-2.192h0a4.8,4.8,0,0,0-.369-.85,4.92,4.92,0,0,0-1.819-1.857,5,5,0,0,0-2.523-.684h-.023a5.011,5.011,0,0,0-2.524.684,4.925,4.925,0,0,0-1.818,1.857,4.8,4.8,0,0,0-.369.85h9.445Z"/></g></svg>