<?xml version="1.0" encoding="UTF-8" standalone="no"?>
<svg xmlns="http://www.w3.org/2000/svg" data-name="Layer 1" viewBox="0 0 70 70">
    <path d="M46.77 29.89v.74c0 8.55-6.42 18.26-18.16 18.26A17.93 17.93 0 0118.8 46a14.51 14.51 0 001.54.05 12.52 12.52 0 007.91-2.71 6.34 6.34 0 01-5.95-4.46 4.41 4.41 0 001.17.16 8.23 8.23 0 001.7-.21A6.47 6.47 0 0120 32.54v-.05a6.47 6.47 0 003 .74 6.12 6.12 0 01-2.87-5.31 6.54 6.54 0 01.87-3.24 17.81 17.81 0 0013.17 6.69A6.1 6.1 0 0134 30a6.45 6.45 0 016.37-6.48 6.36 6.36 0 014.67 2A13.48 13.48 0 0049.11 24a7 7 0 01-2.81 3.5 13.27 13.27 0 003.66-1 15.79 15.79 0 01-3.19 3.39z"></path>
</svg>