<svg id="Layer_1" data-name="Layer 1" xmlns="http://www.w3.org/2000/svg" viewBox="0 0 70 70"><title>NC-icons</title><path d="M19.94,41.58c-0.18-.49.37-0.92,0.61-1.35,1.47-2.7,2.69-5,4.29-7.66a8,8,0,0,0,.67-1.16,11.55,11.55,0,0,0-.86-1.78c-0.74-1.1-1.35-2.08-2-3.18A2.26,2.26,0,0,1,22,24.68a1.12,1.12,0,0,1,.61-0.43H27.9c0.92,0.12,1.29,1,1.71,1.78a61,61,0,0,1,3.12,5.39c-1.47,2.51-3.06,5.39-4.66,8.15C27.65,40.42,27,42,26,42.07H20.61A1,1,0,0,1,19.94,41.58Zm25.36,8.88C45.6,51,46.15,51.81,46,52.3c-0.37.61-1.84,0.43-2.94,0.43a16,16,0,0,1-3.49-.06c-0.92-.37-1.71-2.63-2.2-3.43-1.9-3.55-4-7.41-5.88-10.78,3.25-6,7.17-12.56,10.53-18.8,0.49-.92,1-2.33,2.21-2.45h2.94c1,0,2.63-.06,2.88.37,0.43,0.73-.73,2.08-1.16,2.76-3.37,6.06-6.8,12-10.17,18.07C40.88,42.5,43,46.42,45.29,50.46Z"/></svg>