<?xml version="1.0" encoding="UTF-8" standalone="no"?>

<svg xmlns="http://www.w3.org/2000/svg" viewBox="0 0 500 500"><path d="M454.8 201c-.2-4.9-.4-9.7-.8-14.6-1.6-20.6-3.9-44.1-17.4-60.6-11.6-14.1-29.6-17.3-46.7-19.2-21.6-2.5-43.4-3.9-65.2-4.8-44.1-1.7-88.2-.7-132.3.3-22.7.5-45.3 1-67.9 2.8-27.7 2.2-56.3 6.3-69.2 34-11.6 24.9-10.2 56.5-10.3 83.2-.1 24-.2 48 .7 72 1.3 31.1 3.1 71.7 36.7 85.3 17.9 7.3 39.6 8.9 58.7 10.2 20.3 1.3 40.7 1.2 61 1.5 42.6.6 85.3-.8 127.9-1.7 29.6-.6 60-.9 88.3-10.6 24.5-8.3 30.8-34.8 34.1-57.8 3.3-22.8 2.5-46 2.4-69 .2-17 .6-34.1 0-51zM208.5 308.1V183.3l106.2 62.4-106.2 62.4z"></path></svg>